<?xml version="1.0" encoding="iso-8859-1"?>
<!-- Uploaded to: SVG Repo, www.svgrepo.com, Generator: SVG Repo Mixer Tools -->
<svg fill="#000000" height="800px" width="800px" version="1.1" id="Layer_1" xmlns="http://www.w3.org/2000/svg" xmlns:xlink="http://www.w3.org/1999/xlink" 
	 viewBox="0 0 512 512" xml:space="preserve">
<g transform="translate(1 1)">
	<g>
		<g>
			<path d="M485.4-1H109.933c-14.507,0-25.6,11.093-25.6,25.6v25.6H24.6C10.093,50.2-1,61.293-1,75.8v409.6
				c0,14.507,11.093,25.6,25.6,25.6h324.267c14.507,0,25.6-11.093,25.6-25.6v-384c0-18.773,15.36-34.133,34.133-34.133
				c18.773,0,34.133,15.36,34.133,34.133v298.667c0,18.773,15.36,34.133,34.133,34.133c18.773,0,34.133-15.36,34.133-34.133V24.6
				C511,10.093,499.907-1,485.4-1z M357.4,101.4v384c0,5.12-3.413,8.533-8.533,8.533H24.6c-5.12,0-8.533-3.413-8.533-8.533V75.8
				c0-5.12,3.413-8.533,8.533-8.533h68.267H370.2C362.52,76.653,357.4,88.6,357.4,101.4z M493.933,400.067
				c0,9.387-7.68,17.067-17.067,17.067s-17.067-7.68-17.067-17.067V101.4c0-28.16-23.04-51.2-51.2-51.2H101.4V24.6
				c0-5.12,3.413-8.533,8.533-8.533H485.4c5.12,0,8.533,3.413,8.533,8.533V400.067z"/>
			<path d="M408.6,92.867c-5.12,0-8.533,3.413-8.533,8.533v375.467c0,5.12,3.413,8.533,8.533,8.533s8.533-3.413,8.533-8.533V101.4
				C417.133,96.28,413.72,92.867,408.6,92.867z"/>
			<path d="M186.733,297.667c56.32,0,102.4-46.08,102.4-102.4s-46.08-102.4-102.4-102.4s-102.4,46.08-102.4,102.4
				S130.413,297.667,186.733,297.667z M101.831,203.8h25.41c1.428,25.889,9.236,50.006,20.559,67.312
				C122.716,258.141,104.775,233.105,101.831,203.8z M195.267,277.983V203.8h33.863
				C226.841,240.737,210.081,269.435,195.267,277.983z M195.267,186.733v-74.183c14.815,8.547,31.574,37.246,33.863,74.183H195.267z
				 M178.2,112.551v74.183h-33.863C146.626,149.796,163.385,121.098,178.2,112.551z M178.2,203.8v74.183
				c-14.815-8.547-31.574-37.246-33.863-74.183H178.2z M225.667,271.112c11.324-17.306,19.132-41.423,20.559-67.312h25.41
				C268.692,233.105,250.751,258.141,225.667,271.112z M271.636,186.733h-25.41c-1.428-25.889-9.236-50.006-20.559-67.312
				C250.75,132.392,268.692,157.428,271.636,186.733z M147.8,119.421c-11.324,17.306-19.132,41.423-20.559,67.312h-25.41
				C104.775,157.428,122.716,132.392,147.8,119.421z"/>
			<path d="M50.2,340.333h153.6c5.12,0,8.533-3.413,8.533-8.533c0-5.12-3.413-8.533-8.533-8.533H50.2
				c-5.12,0-8.533,3.413-8.533,8.533C41.667,336.92,45.08,340.333,50.2,340.333z"/>
			<path d="M169.667,451.267H50.2c-5.12,0-8.533,3.413-8.533,8.533c0,5.12,3.413,8.533,8.533,8.533h119.467
				c5.12,0,8.533-3.413,8.533-8.533C178.2,454.68,174.787,451.267,169.667,451.267z"/>
			<path d="M323.267,451.267h-102.4c-5.12,0-8.533,3.413-8.533,8.533c0,5.12,3.413,8.533,8.533,8.533h102.4
				c5.12,0,8.533-3.413,8.533-8.533C331.8,454.68,328.387,451.267,323.267,451.267z"/>
			<path d="M50.2,383h102.4c5.12,0,8.533-3.413,8.533-8.533s-3.413-8.533-8.533-8.533H50.2c-5.12,0-8.533,3.413-8.533,8.533
				S45.08,383,50.2,383z"/>
			<path d="M246.467,331.8c0,5.12,3.413,8.533,8.533,8.533h68.267c5.12,0,8.533-3.413,8.533-8.533c0-5.12-3.413-8.533-8.533-8.533
				H255C249.88,323.267,246.467,326.68,246.467,331.8z"/>
			<path d="M323.267,365.933H203.8c-5.12,0-8.533,3.413-8.533,8.533S198.68,383,203.8,383h119.467c5.12,0,8.533-3.413,8.533-8.533
				S328.387,365.933,323.267,365.933z"/>
			<path d="M50.2,425.667h51.2c5.12,0,8.533-3.413,8.533-8.533s-3.413-8.533-8.533-8.533H50.2c-5.12,0-8.533,3.413-8.533,8.533
				S45.08,425.667,50.2,425.667z"/>
			<path d="M144.067,417.133c0,5.12,3.413,8.533,8.533,8.533h68.267c5.12,0,8.533-3.413,8.533-8.533s-3.413-8.533-8.533-8.533H152.6
				C147.48,408.6,144.067,412.013,144.067,417.133z"/>
			<path d="M323.267,408.6h-51.2c-5.12,0-8.533,3.413-8.533,8.533s3.413,8.533,8.533,8.533h51.2c5.12,0,8.533-3.413,8.533-8.533
				S328.387,408.6,323.267,408.6z"/>
		</g>
	</g>
</g>
</svg>