<svg version="1.1" xmlns="http://www.w3.org/2000/svg" xmlns:xlink="http://www.w3.org/1999/xlink" width="20" height="20" viewBox="0 0 20 20">
<path id="Design" d="M-0.003,25.021 C0.787,23.425 1.606,21.844 2.356,20.230 C2.808,19.259 3.425,18.452 4.181,17.699 C9.638,12.267 15.072,6.811 20.512,1.362 C20.985,0.889 21.522,0.565 22.207,0.493 C23.326,0.376 24.500,1.124 24.846,2.206 C25.181,3.257 24.907,4.152 24.145,4.916 C22.774,6.293 21.400,7.667 20.027,9.041 C15.656,13.417 11.287,17.795 6.912,22.167 C6.752,22.327 6.558,22.468 6.356,22.570 C4.514,23.502 2.667,24.422 0.822,25.348 C0.738,25.390 0.663,25.450 0.585,25.502 C0.389,25.502 0.193,25.502 -0.003,25.502 C-0.003,25.342 -0.003,25.181 -0.003,25.021 zM19.669,3.483 C14.472,8.685 9.272,13.891 4.105,19.063 C4.876,19.836 5.665,20.626 6.426,21.390 C11.602,16.206 16.801,10.998 21.987,5.803 C21.222,5.037 20.438,4.252 19.669,3.483 zM22.694,5.183 C22.973,4.900 23.267,4.607 23.556,4.308 C23.660,4.199 23.762,4.085 23.847,3.961 C24.243,3.388 24.232,2.615 23.827,2.061 C23.378,1.446 22.659,1.187 21.975,1.403 C21.218,1.642 20.830,2.319 20.297,2.777 C21.106,3.589 21.888,4.374 22.694,5.183 zM5.649,21.985 C4.931,21.266 4.228,20.564 3.508,19.845 C2.819,21.226 2.120,22.626 1.421,24.026 C1.440,24.042 1.458,24.058 1.476,24.073 C2.871,23.375 4.266,22.677 5.649,21.985 z" fill="#757575" />
</svg>
